<?xml version="1.0" standalone="no"?>
<!DOCTYPE svg PUBLIC "-//W3C//DTD SVG 1.1//EN" "http://www.w3.org/Graphics/SVG/1.1/DTD/svg11.dtd" >
<svg xmlns="http://www.w3.org/2000/svg">
<metadata>
Created by FontForge 20120731 at Mon Aug  1 21:10:09 2016
 By admin
</metadata>
<defs>
<font id="iconfont" horiz-adv-x="1024" >
  <font-face 
    font-family="iconfont"
    font-weight="500"
    font-stretch="normal"
    units-per-em="1024"
    panose-1="2 0 6 3 0 0 0 0 0 0"
    ascent="896"
    descent="-128"
    x-height="792"
    bbox="-2 -212 1055 896"
    underline-thickness="50"
    underline-position="-100"
    unicode-range="U+000A-F0141"
  />
<missing-glyph horiz-adv-x="374" 
d="M34 0v682h272v-682h-272zM68 34h204v614h-204v-614z" />
    <glyph glyph-name=".notdef" horiz-adv-x="374" 
d="M34 0v682h272v-682h-272zM68 34h204v614h-204v-614z" />
    <glyph glyph-name=".null" horiz-adv-x="0" 
 />
    <glyph glyph-name="nonmarkingreturn" horiz-adv-x="341" 
 />
    <glyph glyph-name="uni000A" unicode="&#xa;" 
d="M511 623q-11 0 -14.5 -7.5t-3.5 -22.5v-391q0 -15 3.5 -22.5t14.5 -7.5q20 0 20 30v391q0 30 -20 30zM511 623zM707 488q-12 0 -15 -7.5t-3 -22.5v-256q0 -10 1 -15.5t5 -10t12 -4.5q20 0 20 30v256q0 30 -20 30zM707 488zM331 397q-12 0 -15.5 -7.5t-3.5 -22.5v-165
q0 -15 3.5 -22.5t15.5 -7.5q19 0 19 30v165q0 30 -19 30zM331 397zM767 773h-512q-74 0 -127 -52.5t-53 -127.5v-421q0 -75 53 -128t127 -53h512q74 0 127 53t53 128v421q0 75 -52.5 127.5t-127.5 52.5zM913 166q-1 -47 -37.5 -94t-86.5 -47h-537q-54 0 -98 43.5t-44 97.5
v434q0 54 43 96t96 42h537q53 0 90 -44t37 -100v-428zM887 172z" />
    <glyph glyph-name="x" unicode="x" horiz-adv-x="1001" 
d="M281 543q-27 -1 -53 -1h-83q-18 0 -36.5 -6t-32.5 -18.5t-23 -32t-9 -45.5v-76h912v41q0 16 -0.5 30t-0.5 18q0 13 -5 29t-17 29.5t-31.5 22.5t-49.5 9h-133v-97h-438v97zM955 310v-52q0 -23 0.5 -52t0.5 -58t-10.5 -47.5t-26 -30t-33 -16t-31.5 -4.5q-14 -1 -29.5 -0.5
t-29.5 0.5h-32l-45 128h-439l-44 -128h-29h-34q-20 0 -45 1q-25 0 -41 9.5t-25.5 23t-13.5 29.5t-4 30v167h911zM163 247q-12 0 -21 -8.5t-9 -21.5t9 -21.5t21 -8.5q13 0 22 8.5t9 21.5t-9 21.5t-22 8.5zM316 123q-8 -26 -14 -48q-5 -19 -10.5 -37t-7.5 -25t-3 -15t1 -14.5
t9.5 -10.5t21.5 -4h37h67h81h80h64h36q23 0 34 12t2 38q-5 13 -9.5 30.5t-9.5 34.5q-5 19 -11 39h-368zM336 498v228q0 11 2.5 23t10 21.5t20.5 15.5t34 6h188q31 0 51.5 -14.5t20.5 -52.5v-227h-327z" />
    <glyph glyph-name="uniE600" unicode="&#xe600;" 
d="M740 754h-456q-21 0 -36 -15t-15 -36v-150h-47v-41h47v-61h-47v-41h47v-62h-47v-41h47v-51h-47v-41h47v-150q0 -21 15 -36t36 -15h456q21 0 36 15t15 36v638q0 21 -15 36t-36 15zM274 65v150h47v41h-47v51h47v41h-47v62h47v41h-47v61h47v41h-47v150q0 5 3 8t7 3h337v-660
h-337q-4 0 -7 3t-3 8zM750 65q0 -5 -3 -8t-7 -3h-78v660h78q4 0 7 -3t3 -8v-638z" />
    <glyph glyph-name="uniE609" unicode="&#xe609;" 
d="M784 714v67h-737v-67v-67h737v67zM767 579q8 0 17 -1v1h-737v-67v-67h488q36 61 97.5 97.5t134.5 36.5zM499 311q0 34 8 67h-460v-67v-67h460q-8 33 -8 67zM534 177h-487v-67v-67h700q-68 5 -124 41t-89 93zM583 378h67v-67h-67v67zM650 311h67v-67h-67v67zM717 244h67
v-67h-67v67zM784 311h67v-67h-67v67zM851 378h67v-67h-67v67zM918 445h67v-67h-67v67z" />
    <glyph glyph-name="uniE60A" unicode="&#xe60a;" 
d="M657 286zM918 413l-99 98v139q0 17 -12 29t-29 12h-139l-98 98q-12 12 -29 12t-29 -12l-98 -98h-139q-17 0 -29 -12t-12 -29v-139l-98 -98q-12 -12 -12 -29t12 -29l98 -98v-139q0 -17 12 -29t29 -12h139l98 -98q12 -12 29 -12t29 12l98 98h139q17 0 29 12t12 29v139
l99 98q12 12 12 29t-12 29zM512 97q-53 0 -102 21q73 30 118 97t45 148.5t-45 148.5t-118 97q49 21 102 21q110 0 188 -78t78 -188.5t-78 -188.5t-188 -78z" />
    <glyph glyph-name="uniE60B" unicode="&#xe60b;" 
d="M498 599h27v134h-21q-1 -8 -5 -13t-9 -8q-5 -4 -12 -5q-6 -1 -13 -1v-20h33v-87zM222 480q-5 -4 -9 -6q-7 -5 -9 -7q-8 -5 -16 -11t-14 -13t-9 -15t-3 -21h98v24h-63q5 7 11 12q7 5 13 10q9 6 14 9q6 4 11.5 10t8.5 13q4 7 4 17t-4 18t-10 13t-14 8q-9 3 -18 3
q-12 0 -21 -4t-15 -11.5t-9 -17.5t-3 -21h26q0 5 1 11q1 5 3.5 9.5t6.5 7.5t10 3q9 0 14.5 -5.5t5.5 -15.5q0 -6 -3 -11t-7 -9zM814 302q-6 0 -10 2t-7 6q-3 3 -4 8q-2 6 -2 10h-26q0 -11 4 -20q3 -10 10 -15q6 -7 15 -10q10 -3 21 -3q9 0 18 3t16 8.5t11 13.5t4 19
t-6.5 19.5t-17.5 10.5q9 3 14 10.5t5 17.5q0 9 -4 16t-11 11q-6 5 -14 7.5t-16 2.5q-10 0 -18.5 -3.5t-14.5 -9.5t-9 -15q-3 -8 -4 -18h26q0 10 5 16.5t15 6.5q8 0 13.5 -4.5t5.5 -12.5q0 -6 -2.5 -9.5t-7.5 -5.5q-3 -2 -9 -2h-9v-19h10q5 -1 10 -3t7.5 -5.5t2.5 -11.5
q0 -10 -6 -15q-5 -6 -15 -6zM906 223h-209q-9 0 -17 -3l-5 -2v285q0 21 -15.5 36.5t-36.5 15.5h-221q-22 0 -37 -15.5t-15 -36.5v-142l-5 1q-8 3 -17 3h-210q-22 0 -37 -15.5t-15 -36.5v-394q0 -21 15 -36.5t36 -15.5h791q21 0 36 15.5t15 36.5v251q0 22 -15.5 37.5
t-37.5 15.5zM350 -93h-233q-5 0 -8.5 3.5t-3.5 8.5l1 394q0 4 3.5 7.5t8.5 3.5h210q5 0 8.5 -3.5t3.5 -7.5v-9l10 -10v-387zM635 -93h-245v596q0 5 3.5 8t8.5 3h221q5 0 8.5 -3t3.5 -8v-596zM908 -93h-233v244l10 10v9q0 5 3.5 8.5t8.5 3.5h209q5 0 8.5 -3.5t3.5 -8.5
l1 -251q0 -5 -3.5 -8.5t-7.5 -3.5zM908 -93z" />
    <glyph glyph-name="uniE60C" unicode="&#xe60c;" 
d="M572 300h60v-60h-60v60zM693 300h60v-60h-60v60zM813 300h60v-60h-60v60zM572 180h60v-61h-60v61zM693 180h60v-61h-60v61zM813 180h60v-61h-60v61zM572 59h60v-60h-60v60zM693 59h60v-60h-60v60zM813 59h60v-60h-60v60zM452 -152q-5 0 -10 2l-361 120q-21 7 -21 29v662
q0 16 12.5 25t27.5 4l361 -121q21 -6 21 -28v-663q0 -15 -13 -24q-8 -6 -17 -6zM120 21l302 -101v599l-302 101v-599zM452 -152q-9 0 -16 5q-14 9 -14 25v663q0 22 20 28l362 121q14 5 27 -4q12 -9 12 -25v-241q0 -12 -8.5 -21t-21 -9t-21.5 9t-9 21v200l-301 -101v-592
l77 39q11 5 23 1t17.5 -15t1.5 -23t-15 -17l-121 -61q-6 -3 -13 -3z" />
    <glyph glyph-name="uniE60D" unicode="&#xe60d;" 
d="M288 609q-3 11 8 11l50 -18q14 0 7 -29v-250q11 -222 -254 -394q-4 -3 -11 -3q-3 3 0 11q208 143 200 386v286zM195 166q-7 -11 -14 -11q-7 3 -7 14l7 419q0 114 -7 171q0 7 11 4l78 -47l129 4l29 39l64 -39q11 -4 4 -11l-22 -28v-186q90 125 172 314l68 -42q7 0 0 -11
l-18 -15q-32 -46 -68 -93l179 8l36 46l75 -54q7 -3 0 -10l-25 -32l-7 -319l3 -118q-7 -139 -143 -218q-11 -7 -14 3q7 61 -36 83q-7 3 -3 7h7q114 -7 107 125l4 465l-197 -7q-75 -93 -143 -154v-36l3 -139q-3 -43 -57 -86q-11 -7 -14 7v487l-136 -7l-18 -22l-4 -415
q-3 -46 -43 -96zM371 176q128 -53 154 -89q7 -32 -25 -61q-22 -22 -36 7q-36 86 -100 133q-4 7 7 10zM671 373q-3 11 7 7q86 -71 93 -114q8 -40 -43 -58q-28 -7 -25 18q0 32 -3 58q-136 -51 -186 -83q-11 -7 -14 4l-26 54q36 3 47 21q57 111 104 272l71 -43l7 -4q0 -3 -7 -7
l-14 -14q-79 -129 -143 -211l161 25q-11 50 -29 75z" />
    <glyph glyph-name="uniE60E" unicode="&#xe60e;" 
d="M953 104l-128 572q1 3 0 6q-1 9 -15.5 12t-33 -0.5t-30.5 -12.5t-11 -17l2 -4l25 -82q-6 -2 -17 -6q-49 -17 -79.5 -26.5t-81 -19t-87.5 -5.5q-42 6 -80.5 2.5t-68 -8t-56 -14.5t-44.5 -18.5t-33.5 -20t-23 -18t-13.5 -12.5l-25 83v1q-2 9 -16 12t-32 -0.5t-29.5 -12
t-9.5 -16.5v-1l129 -578q-1 -3 0 -5q1 -9 15.5 -12t33 0.5t30.5 12t11 17.5q-1 3 -3 5l-19 76q87 64 161 92t155 25q74 -3 138.5 4t90.5 14t39 13l19 -77v-5q2 -8 16 -11.5t33 0.5t31 12.5t10 17.5q-1 3 -3 5zM628 358q8 -8 -2 -12q-11 -6 -22 -17q-3 -3 -2 -4.5t4 -1.5h6h7
q16 -2 29 -15q5 -5 4 -11q-1 -9 -1 -28.5t-1 -28.5q-3 -19 -9 -30q-9 -17 -24 -4q-27 22 -30 25q-9 -21 -10 -23q-6 -12 -11 -15q-1 0 -2 -1q-7 -4 -10 1q0 1 -2 3.5t-2.5 4t0 3.5t2.5 5q3 2 6 11q7 24 14 84q-4 -1 -6 -3.5t-4.5 -7t-2.5 -5.5q-16 -25 -34 -31
q-14 -5 -18.5 6.5t-21.5 20.5q-2 -12 1 -24.5t7 -20t12 -21.5t11 -19q2 -5 5 -10t7 -10.5t7 -8.5q4 -7 2 -9q-5 -5 -12 -3q-21 8 -34 30q-1 3 -19 37q-2 -2 -5 -8.5t-5.5 -10.5t-6.5 -6q-10 -6 -18 1q-10 8 -15 19q-4 7 0 11q6 6 9 14t5 18.5t4 15.5q3 8 -4 15
q-16 -46 -65 -24l-16 11q-6 9 4 12q17 4 27 26q16 38 20 44q2 4 0 13q-3 8 -8 22q-3 10 -11 9q-4 -1 -5.5 0.5t-3.5 5.5l-1 4q-3 5 5 9q14 8 31.5 0.5t21.5 -23.5q4 -13 13 -16q26 -9 13 -33q-7 -10 -6 -18t13 -18l7 -8q1 22 1 23q1 15 4.5 18t17.5 3q0 2 -4 6
q-8 10 -8.5 16t5.5 18q6 9 6 13h-2q-1 -1 -4 -4.5t-4.5 -4t-5.5 -2.5t-7 0q-6 3 -14 14t-8 18t3 10q7 6 13 26q3 13 -4 17q-8 4 1 11q8 8 26 5.5t21 -12.5q2 -6 5.5 -9.5t6 -4.5t8.5 -3q19 -7 12 -28q-2 -5 2 -7q11 -7 13.5 -10t4.5 -15q18 10 31 13q20 3 34 -15
q10 -11 -6 -20q-13 -8 -21 -20q14 2 26 -8zM598 280q0 -5 -2 -13.5t-2 -9.5q-1 -1 -1.5 -3t-0.5 -3.5t0.5 -3t3.5 -2.5q10 -7 18 -4q5 2 6 8q3 18 0 39q0 7 -8 6q-14 0 -14 -14zM534 333q-12 -6 -18.5 -19t-4.5 -27q24 26 29 40q2 6 0 7q-1 2 -6 -1zM559 360.5q3 -1.5 5 0.5
q19 16 28 39q-9 -6 -21 -20t-13 -16q-2 -2 1 -3.5zM502 344q-8 -1 -7 -9q7 6 7 9z" />
    <glyph glyph-name="uniE610" unicode="&#xe610;" 
d="M90 608q-10 0 -17 -7t-7 -17v-569q0 -11 8 -18t19 -6q54 6 121 6q155 0 241 -33q4 -2 8 -2q5 0 11 3q11 -4 21 -8q4 -2 8 -2q5 0 10 3q5 -3 10 -3q4 0 8 2q9 4 21 8q6 -3 11 -3q4 0 9 2q85 33 240 33q60 0 122 -6q10 -1 18 6t8 18v569q0 10 -7 17t-17 7t-17 -7t-7 -17
v-543q-30 2 -62 3v572q0 9 -5.5 16t-14.5 8q-27 3 -54 3q-51 0 -99.5 -9.5t-84 -24.5t-52 -24t-27.5 -16q-10 7 -27 16t-52 24t-84 24.5t-100 9.5q-27 0 -54 -3q-8 -1 -14 -8t-6 -16v-572q-32 -1 -62 -3v543q0 10 -7 17t-17 7zM545 534q106 61 231 61q15 0 30 -1v-542
q-17 1 -36 1q-119 0 -225 -40v521zM220 594q15 1 30 1q126 0 231 -61v-521q-106 40 -225 40q-18 0 -36 -1v542z" />
    <glyph glyph-name="uniE612" unicode="&#xe612;" 
d="M135 7v754h754zM266 353q7 16 14 30l47 -47l10 10l-51 51q5 11 10 21q-5 3 -11 8q-5 -10 -10 -19l-26 27l16 16l-9 8l-16 -16l-28 29l-10 -10l29 -28l-9 -9q-6 9 -13 17l-11 -7q23 -28 33 -52q7 2 14 3q-6 14 -16 29l10 10l30 -30q-7 -15 -15 -32zM276 429l82 82l-8 8
l-37 -37l-19 19l31 31l-9 9l-31 -31l-18 18l-10 -10l18 -18l-30 -30l9 -8l30 29l19 -18l-35 -36zM305 405l51 52l25 -25q9 -9 1 -17q-7 -8 -18 -17q7 -5 13 -9l17 17q16 17 0 33l-28 28l19 18l-9 9l-18 -19l-14 14l-10 -10l14 -14l-52 -51zM355 400l2 15q-15 1 -35 2l-1 -13
q17 -1 34 -4zM431 507q-5 24 -19 53l70 -70l9 9l-70 71q16 -1 35 -3l1 15q-16 1 -38 1v-11l-17 17l18 18l-9 9l-18 -18l-27 27l-10 -10l27 -27l-20 -20l9 -9l19 19q18 -32 25 -65q8 -3 15 -6zM407 630q52 -42 96 -47q0 -29 -15 -68q10 -1 17 -3q13 40 12 69q27 -1 61 10
q-2 8 -2 19q-32 -14 -60 -13q-6 48 -45 98l-9 10l-72 -73l9 -9zM501 598q-39 5 -84 43l44 43q34 -45 40 -86z" />
    <glyph glyph-name="uniE613" unicode="&#xe613;" 
d="M876 345l-4 40q-38 -8 -71 -8q-29 0 -52 12.5t-38.5 31t-32 37t-43 31.5t-62.5 13q-87 0 -157 -40t-107 -113q-3 1 -10 1q-24 0 -45 -28l-55 46l-95 -115l171 -152l105 113l-52 45q20 24 20 43q0 14 -5 24q24 45 64 71.5t91 27.5q-2 -34 -3 -84t-2 -67q-3 -42 -12.5 -69
t-37 -55t-77.5 -52t-133 -51v-46q124 13 208 55.5t130 131.5q65 -18 103 -84.5t38 -156.5q0 -1 -3 -51h56q13 54 13 108q0 84 -35.5 148.5t-108.5 100.5l25 142q54 -77 104 -77q21 0 56 8.5t57 18.5zM325 301q0 -7 -15 -27l-39 33q16 20 28 20l-4 -10l29 -12q0 -1 0.5 -2
t0.5 -2zM649 587.5q0 24.5 -17.5 42t-42 17.5t-42.5 -17.5t-18 -42t18 -42.5t42.5 -18t42 18t17.5 42.5z" />
    <glyph glyph-name="uniE61C" unicode="&#xe61c;" 
d="M657 462l135 -137h-373q-6 0 -10 -4t-4 -9.5t4 -9.5t10 -4h373l-135 -137q-4 -4 -4 -9.5t4 -9.5q10 -10 20 0l158 160q10 10 0 19l-158 160q-10 10 -20 0.5t0 -19.5zM520 -26q0 6 -4 10t-10 4h-269v647h269q6 0 10 4t4 9.5t-4 9.5t-10 4h-282q-6 0 -10 -4t-4 -9v-675
q0 -5 4 -9t10 -4h282q6 0 10 4t4 9z" />
    <glyph glyph-name="uniE61E" unicode="&#xe61e;" 
d="M512 654h337q62 0 94 -48q16 -25 16 -52q2 -197 1 -507q0 -37 -25.5 -65t-62.5 -33q-14 -2 -29 -2h-221h-221h-221q-65 0 -92 38q-23 32 -23 58q-2 202 -1 514q0 40 32 68.5t77 28.5h339zM509 544v1q-249 0 -284 -1q-23 0 -36.5 -12t-13.5 -34q-1 -274 0 -438
q1 -35 12 -46t45 -11q290 -1 543 0q38 0 56 18.5t18 57.5q1 210 0 398q-1 44 -12.5 55.5t-55.5 11.5h-272zM335 250q-45 57 -46 109.5t42 92.5q42 38 96.5 38t96.5 -39q43 -39 42 -91t-46 -111q112 -68 101 -192h-55q9 83 -48 130q-44 34 -99 31q-59 -3 -99 -47.5
t-31 -113.5h-53q-15 46 11 97t88 96zM428 435q-34 0 -58.5 -23.5t-25.5 -56.5q0 -33 24 -57.5t58 -24.5q35 -1 60 22.5t26 57.5q0 33 -24.5 57t-59.5 25zM627 275v50h164v-50h-164zM627 384v52h109v-52h-109z" />
    <glyph glyph-name="uniE620" unicode="&#xe620;" 
d="M480 172v-256h64v256h-64zM192 108v-32h-64v-96v-64h64h64v64h-64v32h64v96v64h-64h-64v-64h64zM832 108v-32h-64v-64h64v-32h-64v-64h128v32v32v32v32v32v32v64h-64h-64v-64h64zM128 556q-53 0 -90.5 -37.5t-37.5 -90.5v-512q0 -53 37.5 -90.5t90.5 -37.5h128
q58 0 96 43q38 -43 96 -43h128q58 0 96 43q38 -43 96 -43h128q53 0 90.5 37.5t37.5 90.5v256q0 53 -37.5 90.5t-90.5 37.5h-128q-35 0 -64 -17v401q0 53 -37.5 90.5t-90.5 37.5h-128q-53 0 -90.5 -37.5t-37.5 -90.5v-145q-29 17 -64 17h-128zM384 -84v512v256q0 26 19 45
t45 19h128q26 0 45 -19t19 -45v-512v-256q0 -26 -19 -45t-45 -19h-128q-26 0 -45 19t-19 45zM128 492h128q26 0 45 -19t19 -45v-512q0 -26 -19 -45t-45 -19h-128q-26 0 -45 19t-19 45v512q0 26 19 45t45 19zM768 236h128q26 0 45 -19t19 -45v-256q0 -26 -19 -45t-45 -19
h-128q-26 0 -45 19t-19 45v256q0 26 19 45t45 19z" />
    <glyph glyph-name="uniE62D" unicode="&#xe62d;" 
d="M761 701h-492l-144 -222l389 -482l385 477zM278 683h474l118 -195h-718zM155 470h718l-359 -446z" />
    <glyph glyph-name="uniE633" unicode="&#xe633;" 
d="M761 701h-492l-144 -222l389 -482l385 477zM359 484l154 200h1l155 -200h-310zM670 474l-156 -445l-156 445h312zM347 474l152 -431l-348 431h196zM680 474h197v3l1 -2l-349 -432zM873 484h-192l-154 200h225zM278 684h223l-154 -200h-198z" />
    <glyph glyph-name="uniE640" unicode="&#xe640;" 
d="M740 670h-456q-21 0 -36 -15t-15 -36v-150h-47v-41h47v-61h-47v-41h47v-62h-47v-41h47v-51h-47v-41h47v-150q0 -21 15 -36t36 -15h456q21 0 36 15t15 36v638q0 21 -15 36t-36 15zM274 -19v150h47v41h-47v51h47v41h-47v62h47v41h-47v61h47v41h-47v150q0 5 3 8t7 3h337
v-660h-337q-4 0 -7 3t-3 8zM750 -19q0 -5 -3 -8t-7 -3h-78v660h78q4 0 7 -3t3 -8v-638z" />
    <glyph glyph-name="uniE648" unicode="&#xe648;" 
d="M512 -192q-98 0 -186.5 38t-153 102.5t-102.5 153t-38 186.5t38 186.5t102.5 153t153 102.5t186.5 38t186.5 -38t153 -102.5t102.5 -153t38 -186.5t-38 -186.5t-102.5 -153t-153 -102.5t-186.5 -38zM513.5 738q-91.5 0 -175 -36t-144 -96t-96.5 -143.5t-36 -175.5
t36 -175.5t96.5 -144t144 -96t175 -35.5t175 35.5t144 96t96 144t35.5 175t-35.5 175t-96 144t-144 96.5t-175 36zM644 359h136v-310h-136v310zM673 78h78v252h-78v-252zM441 534h135v-485h-135v485zM470 78h77v427h-77v-427zM237 243h136v-194h-136v194zM266 78h78v136h-78
v-136z" />
    <glyph glyph-name="uniE64B" unicode="&#xe64b;" 
d="M894 314h-738q-6 0 -10 4.5t-4 10t4 10t10 4.5h738q6 0 10 -4.5t4 -10t-4 -10t-10 -4.5zM773.5 -31q-5.5 0 -10.5 4l-238 239l-239 -238q-10 -10 -20 0t0 19l249 249q4 4 10 4t10 -4l248 -249q10 -10 0 -20q-4 -4 -9.5 -4zM740.5 386q-5.5 0 -9.5 4t-4 10v200
q0 39 27 66.5t66 27.5t66.5 -27.5t27.5 -66t-27.5 -66t-66.5 -27.5h-7q-6 0 -10 4t-4 10t4 10t10 4h7q27 0 46 19t19 46t-19 46.5t-46 19.5t-46 -19.5t-19 -46.5v-200q0 -6 -4.5 -10t-10 -4zM525.5 397q-57.5 0 -98 40.5t-40.5 98t40.5 98t98 40.5t98 -40.5t40.5 -98
t-40.5 -98t-98 -40.5zM525.5 646q-45.5 0 -78 -32.5t-32.5 -78t32.5 -78t78 -32.5t78 32.5t32.5 78t-32.5 78t-78 32.5zM350 651h-191q-6 0 -10.5 4t-4.5 10t4.5 10t10.5 4h191q6 0 10.5 -4t4.5 -10t-4.5 -10t-10.5 -4zM254 399q-6 0 -10 4t-4 10v237q0 6 4 10t10 4t10 -4
t4 -10v-237q0 -6 -4 -10t-10 -4z" />
    <glyph glyph-name="uniE656" unicode="&#xe656;" 
d="M743 574q0 108 -74.5 184.5t-179 76.5t-179 -76.5t-74.5 -184.5q0 -72 35.5 -133t95.5 -96q-117 -43 -190 -148t-73 -236q0 -12 8 -20t19.5 -8t19.5 8t8 20q0 95 46 176t124.5 128.5t170.5 47.5q4 0 7 1q99 7 167.5 82t68.5 178zM489.5 369q-82.5 0 -140.5 60t-58 145
t58 145t140.5 60t140.5 -60t58 -145t-58 -145t-140.5 -60zM542 221.5q0 -11.5 8 -20t20 -8.5h322q12 0 20 8.5t8 20t-8 20t-20 8.5h-322q-12 0 -20 -8.5t-8 -20zM892 134h-322q-12 0 -20 -8.5t-8 -20t8 -20t20 -8.5h322q12 0 20 8.5t8 20t-8 20t-20 8.5zM892 4h-322
q-12 0 -20 -8.5t-8 -20.5t8 -20t20 -8h322q12 0 20 8t8 20t-8 20.5t-20 8.5z" />
    <glyph glyph-name="uniE65B" unicode="&#xe65b;" 
d="M942 211h-168q-8 0 -13.5 -5.5t-5.5 -13t5.5 -13t13.5 -5.5h168q8 0 13 5.5t5 13t-5 13t-13 5.5zM940 384h-232q-8 0 -13.5 -5.5t-5.5 -13t5.5 -13t13.5 -5.5h232q8 0 13 5.5t5 13t-5 13t-13 5.5zM649 513h290q8 0 13.5 5.5t5.5 13t-5.5 13t-13.5 5.5h-290
q-7 0 -12.5 -5.5t-5.5 -13t5.5 -13t12.5 -5.5zM647 312q-45 50 -108 75q-17 7 -36 12q46 26 73.5 71.5t27.5 99.5q0 80 -57 137.5t-138 57.5t-138 -57.5t-57 -137.5q0 -54 27 -99.5t73 -70.5q-90 -24 -150 -93q-94 -107 -94 -294q0 -7 5.5 -12.5t13.5 -5.5h638q8 0 13.5 5.5
t5.5 12.5q0 97 -27 174q-24 74 -72 125zM251 569.5q0 65.5 46.5 112t111.5 46.5t111.5 -46.5t46.5 -112t-46.5 -111.5t-111.5 -46t-111.5 46t-46.5 111.5zM107 32q5 159 85.5 251t215.5 92q132 0 212 -88q84 -91 88 -255h-601z" />
    <glyph glyph-name="uniE65C" unicode="&#xe65c;" horiz-adv-x="1055" 
d="M223 704h576v-64h-576v64zM223 576h576v-64h-576v64zM223 448h256v-64h-256v64zM735 19l-151 150l46 46l105 -106l169 170l46 -46zM31 896v-960l320 320h-90l-166 -166v742h768v-320h64v384h-896zM767 384q93 0 158.5 -65.5t65.5 -158.5t-65.5 -158.5t-158.5 -65.5
t-158.5 65.5t-65.5 158.5t65.5 158.5t158.5 65.5zM767 448q-119 0 -203.5 -84.5t-84.5 -203.5t84.5 -203.5t203.5 -84.5t203.5 84.5t84.5 203.5t-84.5 203.5t-203.5 84.5z" />
    <glyph glyph-name="uniE662" unicode="&#xe662;" 
d="M746 196v105h-259v103h259v103l155 -155zM694 249v-208h-260v-156l-311 156v674h571v-259h-52v207h-415l207 -104v-466h208v156h52zM694 248z" />
    <glyph glyph-name="uniE66D" unicode="&#xe66d;" 
d="M775 -128h-655q-35 0 -59.5 24t-24.5 58v802q0 34 24.5 58t59.5 24h570v-48h-570q-15 0 -26 -10t-11 -24v-802q0 -14 11 -24t26 -10h655q15 0 26 10t11 24v618h47v-618q0 -34 -24.5 -58t-59.5 -24zM736 556l-88 88l252 252l88 -88zM699 644l38 -38l201 202l-38 38z
M911 738l-13 12l-68 67l26 25l13 -12l67 -67zM611 518l32 118l86 -87zM655 590l-10 -39l38 10zM206 589h315v-47h-315v47zM206 407h461v-47h-461v47zM206 232h461v-47h-461v47z" />
    <glyph glyph-name="uniE671" unicode="&#xe671;" 
d="M349 753q-104 -50 -166 -146.5t-62 -211.5q0 -109 53.5 -201.5t146 -146.5t201.5 -54q115 0 212 62t146 167q-61 -21 -126 -21q-86 0 -163.5 32.5t-137.5 92.5t-92 137.5t-32 162.5q0 65 20 127v0zM520 -63q-91 0 -174 34.5t-148 99.5t-99.5 148.5t-34.5 175.5
q0 154 93 275q44 57 105 98q60 41 131 62q4 1 8 1q13 0 22 -10q12 -15 3 -31q-41 -80 -41 -164q0 -99 49.5 -184t134.5 -134.5t185 -49.5q83 0 163 41q6 3 13 3q10 0 18 -6q15 -12 9 -30q-20 -71 -62 -132q-41 -60 -98 -104q-121 -93 -275 -93h-2v0zM520 -63z" />
    <glyph glyph-name="uniE672" unicode="&#xe672;" 
d="M513 678q-121 0 -207 -86t-86 -207t86 -207t207 -86t207 86t86 207t-86 207t-207 86zM513 140q-101 0 -172.5 72t-71.5 173t71.5 172.5t172.5 71.5t172.5 -71.5t71.5 -172.5t-71.5 -173t-172.5 -72zM513 140zM513 723q23 0 39.5 16.5t16.5 39.5t-16.5 39.5t-39.5 16.5
t-39.5 -16.5t-16.5 -39.5t16.5 -39.5t39.5 -16.5zM513 723zM234 610q23 0 38.5 15.5t15.5 38t-15.5 38.5t-38 16t-38.5 -16t-16 -38.5t16 -38t38 -15.5zM234 610zM119 439q-24 0 -40 -16t-16 -38t16 -38t39.5 -16t39.5 16t16 38t-16 38t-39 16zM119 439zM196 144
q-16 -16 -16 -38t16 -38t38 -16t38 16t16 38t-16 38t-38 16t-38 -16zM196 144zM513 44q-23 0 -38.5 -15.5t-15.5 -38t15.5 -38.5t38 -16t38.5 16t16 38.5t-16 38t-38 15.5zM513 44zM752 144q-16 -16 -16 -38.5t16.5 -38.5t39.5 -16t39.5 16t16.5 38.5t-16.5 38.5t-39.5 16
t-40 -16zM752 144zM908 439q-23 0 -39 -16t-16 -38.5t16 -38.5t38.5 -16t38.5 16t16 38.5t-16 38.5t-38 16zM908 439zM830 625q16 16 16 38.5t-15.5 38.5t-38 16t-38.5 -16t-16 -38.5t16 -38.5t38.5 -16t37.5 16zM830 625z" />
    <glyph glyph-name="uniE687" unicode="&#xe687;" 
d="M295 30l-192 467h-10q-25 0 -42.5 17.5t-17.5 42t18 42.5q18 17 42 17q25 0 42.5 -17.5t17.5 -42.5q0 -12 -5 -23l-5 -12l11 -6q8 -5 21 -12q24 -15 38 -22t39.5 -14.5t52.5 -7.5q14 0 26 2q39 6 71.5 30t51.5 55t30 57t13 42l2 12l-11 4q-18 6 -28.5 21.5t-10.5 33.5
q0 25 17.5 42.5t42 17.5t42 -17.5t17.5 -42.5q0 -37 -34 -53l-9 -5l1 -10q3 -18 15.5 -44.5t33.5 -55t53.5 -51.5t68.5 -30q15 -2 32 -2q26 0 52 7.5t39.5 14.5t37.5 21q14 9 19 12l14 8l-9 13q-10 16 -10 34q0 25 17.5 42t42 17t42 -17t17.5 -42q0 -23 -15.5 -40t-38.5 -19
l-9 -1l-199 -485h-434zM313 56h398l181 440l-34 -16q-9 -5 -21 -10q-21 -11 -33 -16.5t-32.5 -10.5t-42.5 -5q-20 0 -37 3q-56 10 -102 43.5t-63 69.5l-14 30l-13 -31q-16 -39 -62 -74.5t-103 -43.5q-14 -2 -30 -2q-24 0 -46 5.5t-35.5 11.5t-36.5 18q-9 5 -20 10l-35 18z
M641 403v-9q-15 -2 -21 -8t-13 -23l-86 -221h-10l-96 225q-7 17 -12.5 20.5t-19.5 6.5v9h127v-9q-20 0 -26 -3q-7 -3 -7 -13q0 -4 5 -16q5 -13 7 -17l49 -118l48 123l5 15q2 6 2 11q0 18 -32 18v9h80zM641 403z" />
    <glyph glyph-name="uniE6A9" unicode="&#xe6a9;" 
d="M906 105q-8 -77 -70 -181h-228q-13 21 -30 43.5t-46.5 53t-69 52.5t-82.5 28q-9 1 -19.5 5t-17.5 9.5t-7 9.5q0 7 8.5 13.5t16.5 9.5q38 14 75 14q11 0 36 -9.5t41 -20.5l40 -24v418q0 12 7.5 20.5t17.5 8.5h4q10 0 17.5 -8.5t7.5 -20.5v-244h52v313q0 12 7 20.5t17 8.5
h5q10 0 17.5 -8.5t7.5 -20.5v-313h51v212q0 12 7.5 21t17.5 9h4q11 0 18 -9t7 -21v-212h52v142q0 11 5 18.5t11 7.5h4q6 0 11 -7.5t5 -18.5v-319v0zM958 424q0 32 -20 55t-48 23h-4q-8 0 -16 -3q-2 32 -24 54t-53 22h-4q-13 0 -25 -4v24q0 33 -22.5 57t-53.5 24h-5
q-29 0 -51 -21.5t-25 -52.5q-12 5 -25 5h-4q-32 0 -54.5 -24t-22.5 -57v-330q-41 17 -65 17q-44 0 -92 -17q-22 -7 -41 -25.5t-19 -45.5q0 -24 18 -41.5t36.5 -24.5t34.5 -9q33 -4 66.5 -24.5t57 -45.5t43 -50t29 -41t9.5 -17h287l23 47q15 29 40.5 90t28.5 89q1 3 1 326v0z
M545 813h5v83h-6h-241h-4v-83h4h242zM602 634h3v48q-1 1 -3 1h-357q-2 0 -4 -1v-47q2 -1 4 -1h357zM685 825q21 0 34 -13t13 -34v-92h48v91q0 42 -25 69t-70 27h-48h-3v-47q2 -1 3 -1h48zM482 503v48h-237h-4v-48h4h237zM114 231v547q0 21 13 34t34 13h60h1v48h-1h-60
q-47 0 -71 -26.5t-24 -69.5v-541q0 -45 26.5 -72.5t73.5 -27.5h75v47h-68q-22 0 -40.5 14t-18.5 34zM480 409h-235q-2 0 -4 -1v-47q2 -1 4 -1h236z" />
    <glyph glyph-name="uniE6AE" unicode="&#xe6ae;" 
d="M596 537h-388q-15 0 -26 11t-11 26.5t11 26.5t26 11h388q15 0 26 -11t11 -26.5t-11 -26.5t-26 -11zM596 241h-388q-15 0 -26 11t-11 26.5t11 26.5t26 11h388q15 0 26 -11t11 -26.5t-11 -26.5t-26 -11zM420 82h-212q-15 0 -26 11t-11 26.5t11 26t26 10.5h212
q15 0 26 -10.5t11 -26t-11 -26.5t-26 -11zM546 378h-338q-15 0 -26 11t-11 26.5t11 26.5t26 11h338q15 0 26 -11t11 -26.5t-11 -26.5t-26 -11zM738 88v-188h-611v777h611v-345l65 56v349h-741v-897h741v298zM868 416l-41 -37l88 -80l42 37zM617 188l88 -80l201 182l-89 80z
M690 94l-89 80l-9 -8l-25 -103l113 23z" />
    <glyph glyph-name="uniE6F6" unicode="&#xe6f6;" 
d="M512 896q-104 0 -198.5 -40.5t-163 -109t-109 -163t-40.5 -198.5t40.5 -198.5t109 -163t163 -109t198.5 -40.5t198.5 40.5t163 109t109 163t40.5 198.5t-40.5 198.5t-109 163t-163 109t-198.5 40.5zM512 -57q-90 0 -172 35t-141 94t-94 141t-35 172t35 172t94 141t141 94
t172 35t172 -35t141 -94t94 -141t35 -172t-35 -172t-94 -141t-141 -94t-172 -35zM398 574h2q9 0 15.5 6.5t6.5 15.5v45q0 9 -6.5 15.5t-15.5 6.5h-2q-9 0 -15.5 -6.5t-6.5 -15.5v-45q0 -9 6.5 -15.5t15.5 -6.5zM624 574h2q9 0 15.5 6.5t6.5 15.5v45q0 9 -6.5 15.5t-15.5 6.5
h-2q-9 0 -15.5 -6.5t-6.5 -15.5v-45q0 -9 6.5 -15.5t15.5 -6.5zM746 626h-89v-32q0 -13 -9 -22.5t-22 -9.5h-2q-13 0 -22 9.5t-9 22.5v32h-162v-32q0 -13 -9 -22.5t-22 -9.5h-2q-13 0 -22 9.5t-9 22.5v32h-89q-5 0 -8 -3.5t-3 -8.5v-495q0 -5 3 -8.5t8 -3.5h468q5 0 8 3.5
t3 8.5v495q0 5 -3 8.5t-8 3.5zM715 168q0 -7 -10 -7h-386q-10 0 -10 7v314q0 7 10 7h386q10 0 10 -7v-314zM543 466l-29 6q-11 -54 -36 -103v79h-92v-235h28v26h36v-19h28v132l18 -11q16 29 28 62h11v-215h29v68h87v27h-87v45h81v28h-81v47h92v28h-122q5 17 9 35zM450 266
h-36v66h36v-66zM450 359h-36v63h36v-63z" />
    <glyph glyph-name="uniE6FC" unicode="&#xe6fc;" 
d="M313 263h79v130h-79v-130zM313 430h79v127h-79v-127zM945 832h-866q-6 0 -10.5 -4.5t-4.5 -10.5v-866q0 -6 4.5 -10.5t10.5 -4.5h866q6 0 10.5 4.5t4.5 10.5v866q0 6 -4.5 10.5t-10.5 4.5zM752 522h-170v-96h150v-37h-150v-94h162v-36h-162v-126h-40v389h-29
q-23 -63 -53 -115l-30 19v-234h-38v34h-79v-47h-39v414h156v-159q51 92 74 203l40 -8q-6 -27 -19 -69h227v-38z" />
    <glyph glyph-name="uniE70D" unicode="&#xe70d;" 
d="M464 -64q-6 0 -10 4q-12 10 -2 22q9 10 17.5 21.5t16.5 22.5t15.5 23t14.5 24t13.5 24.5t12.5 25t11.5 25.5t10.5 26.5t9.5 27t8.5 27.5l6 28q4 14 6.5 28t4.5 28.5t3 29.5t2 29.5t1 29.5v1q0 4 -0.5 9t-1.5 9.5t-2.5 9t-3 8.5t-4 8t-5.5 7l-4 8l-6.5 6.5t-7.5 5.5l-6 6
q-4 2 -8 4.5t-8 4t-8.5 3t-9 2.5t-9.5 1q-9 1 -18 0q-5 0 -9.5 -1t-9 -2.5t-8.5 -3t-8 -4t-8 -4.5l-6 -6q-4 -2 -7.5 -5.5l-6.5 -6.5l-4 -8q-3 -3 -5.5 -7t-4 -8t-3 -8.5t-2.5 -9t-1.5 -9.5t-0.5 -9v-1q0 -13 -0.5 -26t-2 -26t-3.5 -25.5t-5 -25t-6.5 -25t-7.5 -24t-8.5 -23
t-10 -23t-11.5 -22.5t-12.5 -21.5t-13.5 -20.5t-14.5 -20t-15.5 -19t-16.5 -18t-17.5 -17.5t-18 -16.5q-12 -10 -22 2t2 22q9 7 17.5 15t16.5 16l14 18q8 8 15 17t13.5 18.5t12.5 19.5t11.5 20t10.5 20.5t9.5 21.5t8.5 22t7 23l6 22q3 12 5 23.5t3 23.5t2 24.5t1 24.5v1
q0 6 0.5 12t1.5 12.5t3 12t4 10.5l6 12q2 5 5.5 10t7.5 9.5t8 8.5t8.5 8t9.5 7.5t10 6t11 5t11.5 4.5t11.5 3l12 2q13 1 26 0l12 -2q6 -1 11.5 -3t11.5 -4.5t11 -5t10 -6t9.5 -7.5t8.5 -8t8 -8.5t7.5 -9.5t5.5 -10l6 -12q2 -5 4 -10.5t3 -12t1.5 -12.5t0.5 -12v-1
q0 -15 -0.5 -31t-2 -31t-3.5 -30.5t-4.5 -30.5t-6 -29.5t-7.5 -29t-8.5 -28.5t-9.5 -28t-11 -28l-12 -26q-6 -14 -13 -27t-15 -25l-14 -26q-8 -12 -16.5 -24t-17.5 -23.5t-18 -22.5q-5 -6 -12 -6zM604 -56q-4 0 -8 2q-13 8 -5 21q7 12 14 23.5t13.5 23t12.5 23.5t11.5 24
t11 24.5t10 25.5t9 25.5t8 25.5t7 26.5t6.5 27t6 26.5q1 7 6 10.5t11.5 2.5t10 -6.5t2.5 -11.5q-2 -14 -6 -28l-6 -28q-4 -14 -8 -27.5t-8.5 -27t-9.5 -26.5l-10 -26l-12 -26q-5 -13 -11.5 -25t-13 -24.5t-13.5 -24.5t-15 -23q-5 -7 -13 -7zM344 -33q-6 0 -11 5q-10 11 1 22
q9 9 18 19t17.5 20t16.5 20.5t15.5 21.5t14.5 22t13.5 23t12.5 24t11 24t9.5 24.5t9 25.5t7.5 26l6 28q3 13 5 26.5t3.5 27.5t2.5 28t1 28q0 7 4.5 11.5t10.5 4.5t10.5 -4.5t4.5 -11.5q0 -15 -0.5 -30t-2 -29.5t-4 -29t-5 -28.5t-6.5 -28l-8 -28q-4 -14 -9 -27t-10.5 -26
t-12 -26t-13 -25t-14 -24t-15.5 -23.5t-16.5 -23t-17.5 -22t-18.5 -20.5t-19.5 -20q-4 -5 -11 -5zM764 15q-3 0 -6 2q-6 2 -8 8t0 12l8 20l8 20q4 10 7.5 20.5t6.5 21t6.5 21t6 21t5 21.5t4.5 21.5t4 21.5l4 22q2 11 3.5 22t2.5 22.5t2 22.5t1.5 22.5t0.5 23.5v22v1
q0 16 -1 31q-2 16 -5 31t-7.5 29.5t-10.5 28.5t-13 27t-15 25.5t-17.5 24t-20 22t-22 20t-24 18t-25.5 15.5t-27 13t-28.5 10.5t-29.5 7.5t-30 5q-16 1 -32 1q-6 0 -10.5 4.5t-4.5 11t4.5 11t10.5 4.5q17 0 35 -1q17 -2 33 -6q17 -3 33 -8t31 -11.5t29.5 -14.5t28 -17
t26 -19.5t24 -22t22 -24t20 -26t17 -28t14 -30t11.5 -31.5t8 -33q4 -16 5 -34q2 -17 2 -34v-1v-24q0 -11 -1 -23t-1.5 -23.5t-2.5 -23.5l-2 -22l-4 -24q-1 -11 -3 -22.5t-5 -22.5l-4 -22l-6 -22l-6 -22q-3 -11 -6.5 -22t-7 -21.5t-7.5 -21.5l-8 -20q-4 -11 -8 -21t-15 -10z
M169 104q-7 0 -12 6q-10 12 3 21q7 6 13.5 11.5t12.5 11.5l12 14q6 6 12 13l10 14q6 7 10 15l10 14q4 8 8 16.5t7.5 16.5t6.5 16.5t5.5 17t5 17.5t4 18t2.5 18.5t1 18.5q1 8 1 16v4q0 12 1 23.5t3.5 23t5.5 22.5t7.5 21t10 20t11.5 19.5t13.5 18t15 16.5t16 15t18.5 13
q12 9 21 -4q3 -4 3 -9q0 -8 -7 -12q-8 -6 -15.5 -12t-14.5 -13t-13 -14.5t-11.5 -15.5t-10 -16.5t-8.5 -17.5t-6.5 -18.5t-4.5 -19.5t-3 -20q-1 -9 -1 -18v-3q0 -10 -0.5 -20.5t-1.5 -20.5l-4 -20q-1 -10 -3.5 -20t-5.5 -19.5t-6 -18.5t-7 -18t-8.5 -18t-9 -17.5
t-10.5 -16.5l-10 -16q-6 -8 -12 -15.5t-12.5 -15t-13.5 -14t-14.5 -13t-14.5 -12.5q-5 -3 -10 -3zM114 200q-7 0 -12 5q-10 12 1 22q4 4 8 7.5t7 7.5l8 8l6 8l6 10l6 8q3 5 5.5 10t4.5 10l4 10l4 10q2 5 3.5 10.5t2.5 11.5l2 10l2 12v10q1 6 1 12v1q0 17 2 34q1 18 4.5 34.5
t8.5 32.5t11.5 31.5t14.5 29.5q7 14 21 6q8 -4 8 -13q0 -4 -2 -8q-7 -13 -13 -27t-10.5 -28.5t-7.5 -29.5t-5 -31q-1 -15 -1 -31v-1q0 -6 -0.5 -13t-1.5 -13l-2 -12l-2 -14q-1 -6 -3 -12l-4 -12l-4 -12q-2 -6 -5 -11.5t-5.5 -11t-6 -11t-6.5 -10.5t-7 -10l-8 -10l-8 -8
q-4 -5 -9 -10l-8 -8q-5 -4 -10 -4zM726 309h-1q-7 0 -11 5t-4 11q1 14 1.5 28.5t0.5 28.5v1q0 10 -1 20t-3 20t-4.5 19.5t-6.5 18.5t-8.5 17.5t-10.5 16.5q-2 4 -2 9q0 8 6 13q13 8 22 -4q6 -10 11.5 -20t10 -20t7.5 -21t5.5 -22.5t3.5 -23t1 -23.5v-1q0 -15 -0.5 -29.5
t-1.5 -29.5q0 -6 -4.5 -10t-10.5 -4zM80 364v0q-1 1 -2 1v0q-13 1 -13 15v0v1v0v1v1q0 23 2 46q2 22 7 44q4 22 11 43q6 21 15 41q8 21 18.5 40t22.5 37t26 34.5t29 31.5q11 11 21.5 0t0.5 -22q-15 -14 -27.5 -29.5t-24 -32t-21 -34.5t-17.5 -36.5t-14 -38.5t-10 -40
q-4 -21 -6 -42q-2 -20 -2 -40v-3v-1v-1v0v0v-1v0q-1 -6 -5.5 -10.5t-10.5 -4.5zM944 367q-7 0 -11.5 4.5t-4.5 11.5q0 21 -2 42t-6 42q-4 20 -10 40t-14 38.5t-17.5 36.5t-21 34.5t-24 32t-27.5 29.5q-10 11 0.5 22t21.5 0q15 -15 29 -31.5t26 -34.5t22.5 -37t19 -39.5
t14.5 -41.5q7 -21 11 -43q5 -22 7 -44q2 -23 2 -46q0 -7 -4.5 -11.5t-10.5 -4.5zM665 520q-7 0 -11 5q-7 7 -14.5 13t-15.5 11.5t-16.5 10t-17.5 8.5t-18.5 7t-19 5t-19.5 3q-21 2 -42 0q-10 -1 -19.5 -3t-19.5 -5q-6 -2 -11.5 1t-7.5 9q-1 2 -1 5q0 11 11 14.5t22.5 6
t22.5 3.5q24 2 48 0q11 -1 22.5 -3.5t22.5 -6t21 -8t20 -9.5t19.5 -11.5t18 -13.5t16.5 -15q4 -5 4 -11t-4.5 -11t-10.5 -5zM283 597q-6 0 -10.5 4.5t-4.5 11t4 11.5q12 11 24.5 21.5t26 19.5t28 17t29.5 14.5t31 11.5t33 8q6 2 11.5 -1.5t6.5 -10.5v-3q0 -12 -12 -15
q-15 -3 -29.5 -7.5t-28.5 -10.5t-27 -13t-25.5 -15.5t-24 -18t-21.5 -19.5q-5 -5 -11 -5zM753 727q-4 0 -8 2q-17 12 -34.5 21.5t-36.5 17.5t-38 14q-6 2 -9 7.5t-1 11.5t7.5 9t11.5 1q21 -6 41 -14.5t39 -19t37 -22.5q13 -9 4 -21q-4 -7 -13 -7zM271 727q-9 0 -13 7
q-9 12 4 21q18 12 37 22.5t39 19t41 14.5q21 7 43 12q22 4 44 6q23 3 46 3t46 -3q6 0 10 -5t3.5 -11.5t-5.5 -10.5t-11 -3q-22 2 -43 2t-43 -2q-20 -3 -41 -7q-20 -4 -40 -10q-19 -6 -38 -14t-36.5 -17.5t-34.5 -21.5q-4 -2 -8 -2z" />
    <glyph glyph-name="uniE70E" unicode="&#xe70e;" 
d="M370 105h560v-112h-560v112zM370 440h560v-111h-560v111zM370 776h560v-112h-560v112zM202 832v-224h-55v168h-56v56h111zM147 372v-43h111v-56h-167v127l111 53v43h-111v56h167v-127zM258 217v-280h-167v56h111v56h-111v56h111v56h-111v56h167zM258 217z" />
    <glyph glyph-name="uniE71F" unicode="&#xe71f;" 
d="M913 649l-141 138l-392 -382l142 -139l391 383v0zM306 198l183 44l-134 131l-49 -175v0zM1001 845l-29 28q-23 23 -56 23t-56 -23l-53 -52l140 -138l54 53q23 22 23 54t-23 55v0zM834 -21q0 -9 -6 -15t-15 -6h-101h-40h-563q-9 0 -15.5 6t-6.5 15v769q0 9 6.5 15t15.5 6
h545v86h-545q-45 0 -77 -31.5t-32 -75.5v-769q0 -44 32 -75.5t77 -31.5h563h40h101q45 0 76.5 31.5t31.5 75.5v516h-87v-516v0zM834 -21z" />
    <glyph glyph-name="uniE739" unicode="&#xe739;" 
d="M344 111l-148 360h-8q-19 0 -32.5 13.5t-13.5 32.5t14 33q14 13 32 13q19 0 32.5 -13.5t13.5 -32.5q0 -9 -3 -18l-4 -9l9 -5l15 -9q19 -11 30 -17t30.5 -11.5t40.5 -5.5q11 0 20 2q30 4 55.5 22.5t40 42.5t23 44t10.5 33l1 9l-9 3q-13 5 -21.5 17t-8.5 26q0 19 13.5 32.5
t32.5 13.5t32.5 -13.5t13.5 -32.5q0 -29 -26 -41l-7 -4l1 -8q3 -20 18 -48t46 -56.5t68 -35.5q12 -2 24 -2q21 0 41 6t30.5 11.5t28.5 16.5q11 6 15 9l11 6l-7 10q-8 12 -8 26q0 20 13.5 33.5t32.5 13.5t32.5 -13.5t13.5 -33.5q0 -17 -12 -30t-30 -15l-6 -1l-155 -374h-335z
M358 131h308l140 340l-27 -13q-7 -3 -16 -8q-48 -24 -84 -24q-14 0 -28 2q-43 8 -78.5 34t-48.5 53l-11 24l-10 -24q-13 -31 -48.5 -58t-79.5 -34q-11 -1 -23 -1q-18 0 -35.5 4t-27.5 8.5t-28 14.5q-7 3 -16 8l-27 13zM612 399v-8q-12 -1 -16.5 -5.5t-10.5 -17.5l-66 -171
h-8l-74 174q-6 13 -10 16t-15 5v7h98v-7q-15 0 -20 -3q-5 -2 -5 -10q0 -3 4 -12q4 -10 5 -13l38 -92l37 96q2 7 4 11.5t2 8.5q0 14 -25 14v7h62zM612 399z" />
    <glyph glyph-name="uniE795" unicode="&#xe795;" 
d="M649 147h314v-43h-314v43v0zM442 231q50 26 80.5 75t30.5 108q0 85 -59 145t-142.5 60t-143 -60t-59.5 -145q0 -59 31 -108t81 -75q-80 -27 -133.5 -94t-62.5 -154h36q10 92 76.5 156.5t158.5 70.5q1 0 6.5 -0.5t9 -0.5t9 0.5t6.5 0.5q92 -6 158.5 -70.5t77.5 -156.5h35
q-9 87 -62.5 154t-133.5 94v0zM352 238q-72 0 -123 51.5t-51 124.5t51 124t122.5 51t122.5 -51t51 -124t-51 -124.5t-122 -51.5v0zM649 490h314v-43h-314v43v0zM649 318h314v-43h-314v43v0zM649 318z" />
    <glyph glyph-name="uniE806" unicode="&#xe806;" 
d="M880 776h-390l-232 108q-20 9 -40 9q-40 0 -67.5 -27.5t-27.5 -67.5v-24q-53 -8 -88 -48t-35 -94v-613q0 -60 42 -102t102 -42h368h368q60 0 102 42t42 102v613q0 59 -42 101.5t-102 42.5zM165 798q0 23 16.5 38t36.5 15q11 0 22 -5l251 -117v-775l-295 138
q-31 14 -31 47v659zM43 19v613q0 36 22.5 63.5t57.5 35.5v-592q0 -28 14.5 -51t39.5 -35l291 -136h-324q-42 0 -71.5 30t-29.5 72zM981 19q0 -42 -29.5 -72t-71.5 -30h-347v3v813h347q42 0 71.5 -29.5t29.5 -71.5v-613z" />
    <glyph glyph-name="uniE815" unicode="&#xe815;" 
d="M561 -66h-459v734h459v-183h73v172q0 35 -24.5 59.5t-59.5 24.5h-437q-35 0 -59.5 -24.5t-24.5 -59.5v-712q0 -35 24.5 -59.5t59.5 -24.5h437q35 0 59.5 24.5t24.5 59.5v173h-73v-184zM949 343l-159 159l-45 -45l119 -119h-358v-74h365l-126 -125l45 -45l170 170l34 34z
" />
    <glyph glyph-name="uniE8F8" unicode="&#xe8f8;" 
d="M942 44h-801v739q-11 15 -38 15q-12 0 -24 -3.5t-12 -11.5v-798q0 -9 3 -12t12 -3h860q7 0 11 12t4 24t-4 25t-11 13zM203 69h111q9 0 17 8t8 17v494q0 9 -8 17t-17 8h-111q-8 0 -16 -8t-8 -17v-494q0 -9 8 -17t16 -8zM228 563h62v-445l-62 1v444zM401 69h111q9 0 17 8
t8 17v247q0 9 -8 17t-17 8h-111q-9 0 -17 -8t-8 -17v-247q0 -9 8 -17t17 -8zM426 316h61v-198l-61 1v197zM598 69h112q8 0 16 8t8 17v617q0 9 -8 17t-16 8h-112q-8 0 -16 -8t-8 -17v-617q0 -9 8 -17t16 -8zM623 687h62v-569l-62 1v568zM796 69h111q9 0 17 8t8 17v370
q0 9 -8 17t-17 8h-111q-8 0 -16.5 -8t-8.5 -17v-370q0 -9 8 -17t17 -8zM821 440h62v-322l-62 1v321z" />
    <glyph glyph-name="uF0057" unicode="&#xf0057;" 
d="M767 387h129v-382h-129v382zM342 472h127v-467h-127v467zM555 599h127v-594h-127v594zM128 302h129v-297h-129v297z" />
    <glyph glyph-name="uF00CA" unicode="&#xf00ca;" horiz-adv-x="1026" 
d="M1016 105q5 -30 -13 -54.5t-49 -30.5l-123 -19q-29 -5 -54 13t-31 48l-104 662q-2 15 1.5 29t12 26t21 19.5t28.5 10.5l121 19q31 6 55.5 -12.5t29.5 -49.5zM501 833q30 0 51.5 -21.5t21.5 -52.5v-684q0 -31 -21.5 -52.5t-51.5 -21.5h-107q-30 0 -51.5 21.5t-21.5 52.5
v684q0 31 16 52.5t48 21.5h116zM501 316q10 0 17 10t7 23q0 15 -7 24t-17 9h-107q-10 0 -17 -9t-7 -24q0 -13 7 -23t17 -10h107zM501 446q10 0 17 10t7 24.5t-7 23.5t-17 9h-107q-10 0 -17 -9t-7 -23.5t7 -24.5t17 -10h107zM179 833q31 0 53 -21.5t22 -52.5v-684
q0 -31 -22 -52.5t-53 -21.5h-106q-31 0 -53 21.5t-22 52.5v684q0 31 22 52.5t53 21.5h106zM77 577q-11 0 -18.5 -9.5t-7.5 -23.5t7.5 -23.5t18.5 -9.5h98q11 0 18 9.5t7 23.5t-7 23.5t-18 9.5h-98zM179 255q11 0 18 9t7 23t-7 22.5t-18 8.5h-102q-11 0 -18.5 -8.5
t-7.5 -22.5t7.5 -23t18.5 -9h102zM179 381q11 0 18 9t7 23.5t-7 23.5t-18 9h-102q-11 0 -18.5 -9t-7.5 -23.5t7.5 -23.5t18.5 -9h102z" />
    <glyph glyph-name="uF0141" unicode="&#xf0141;" 
d="M870 181v281h-219v251h-282v-188h-219v-344h-63v-126h846v126h-63zM839 431v-250h-188v250h188zM400 682h220v-220v-281h-220v344v157zM181 494h188v-313h-188v313zM902 87h-783v62h31h219h31h220h31h219h32v-62z" />
  </font>
</defs>
</svg>
